<svg width="32" height="32" viewBox="0 0 32 32" fill="none" xmlns="http://www.w3.org/2000/svg">
<path d="M16 30.1667C23.8241 30.1667 30.1667 23.824 30.1667 16C30.1667 8.17598 23.8241 1.83334 16 1.83334C8.17601 1.83334 1.83337 8.17598 1.83337 16C1.83337 23.824 8.17601 30.1667 16 30.1667Z" fill="#FF6868"/>
<path d="M16 10.3333V16M16 21.6667H16.0142M30.1667 16C30.1667 23.824 23.8241 30.1667 16 30.1667C8.17601 30.1667 1.83337 23.824 1.83337 16C1.83337 8.17598 8.17601 1.83334 16 1.83334C23.8241 1.83334 30.1667 8.17598 30.1667 16Z" stroke="white" stroke-width="3" stroke-linecap="round" stroke-linejoin="round"/>
</svg>
