<svg width="224" height="219" viewBox="0 0 224 219" fill="none" xmlns="http://www.w3.org/2000/svg">
<path d="M99.1683 10.9766C101.533 -3.577 122.467 -3.577 124.832 10.9765L131.127 49.722C132.576 58.6392 142.454 63.3964 150.329 58.9693L184.547 39.7337C197.399 32.5084 210.452 48.8755 200.547 59.7982L174.18 88.8774C168.112 95.5699 170.551 106.259 178.923 109.656L215.296 124.415C228.958 129.959 224.3 150.368 209.585 149.435L170.41 146.951C161.394 146.379 154.558 154.951 157.122 163.614L168.261 201.253C172.445 215.392 153.584 224.475 145.139 212.388L122.656 180.211C117.482 172.806 106.518 172.806 101.344 180.211L78.8608 212.388C70.4158 224.475 51.5547 215.392 55.7388 201.253L66.8781 163.614C69.4418 154.951 62.6058 146.379 53.5897 146.951L14.4149 149.435C-0.299919 150.368 -4.95824 129.959 8.70424 124.415L45.0774 109.656C53.4487 106.259 55.8884 95.5699 49.82 88.8774L23.4526 59.7982C13.5484 48.8755 26.6008 32.5084 39.4535 39.7337L73.6709 58.9693C81.546 63.3964 91.4243 58.6392 92.8731 49.722L99.1683 10.9766Z" fill="url(#paint0_radial_27_22)"/>
<defs>
<radialGradient id="paint0_radial_27_22" cx="0" cy="0" r="1" gradientUnits="userSpaceOnUse" gradientTransform="translate(112 114) rotate(90) scale(182)">
<stop stop-color="#1400FF" stop-opacity="0.72"/>
<stop offset="1" stop-color="#999898"/>
</radialGradient>
</defs>
</svg>
